<svg width="72" height="74" viewBox="0 0 72 74" fill="none" xmlns="http://www.w3.org/2000/svg">
<circle cx="36" cy="38" r="36" fill="#4435A0"/>
<circle cx="36" cy="38" r="36" fill="url(#paint0_radial)"/>
<circle cx="36" cy="38" r="36" stroke="white"/>
<path d="M34.808 56.584C41.2933 56.584 44.536 54.3653 44.536 49.928C44.536 48.5627 44.2373 47.4107 43.64 46.472C43.0853 45.4907 42.3173 44.6587 41.336 43.976C40.3547 43.2507 39.224 42.632 37.944 42.12C36.7067 41.608 35.384 41.096 33.976 40.584C32.3547 40.0293 30.8187 39.4107 29.368 38.728C27.9173 38.0027 26.6587 37.1707 25.592 36.232C24.5253 35.2507 23.672 34.0987 23.032 32.776C22.4347 31.4533 22.136 29.8533 22.136 27.976C22.136 24.0933 23.4587 21.064 26.104 18.888C28.7493 16.712 32.3973 15.624 37.048 15.624C39.736 15.624 42.168 15.9227 44.344 16.52C46.5627 17.0747 48.184 17.6933 49.208 18.376L47.224 23.432C46.328 22.8773 44.984 22.344 43.192 21.832C41.4427 21.2773 39.3947 21 37.048 21C35.8533 21 34.744 21.128 33.72 21.384C32.696 21.64 31.8 22.024 31.032 22.536C30.264 23.048 29.6453 23.7093 29.176 24.52C28.7493 25.288 28.536 26.2053 28.536 27.272C28.536 28.4667 28.7707 29.4693 29.24 30.28C29.7093 31.0907 30.3707 31.816 31.224 32.456C32.0773 33.0533 33.0587 33.608 34.168 34.12C35.32 34.632 36.5787 35.144 37.944 35.656C39.864 36.424 41.6133 37.192 43.192 37.96C44.8133 38.728 46.2 39.6453 47.352 40.712C48.5467 41.7787 49.464 43.0587 50.104 44.552C50.744 46.0027 51.064 47.7733 51.064 49.864C51.064 53.7467 49.6347 56.7333 46.776 58.824C43.96 60.9147 39.9707 61.96 34.808 61.96C33.0587 61.96 31.4373 61.832 29.944 61.576C28.4933 61.3627 27.192 61.1067 26.04 60.808C24.888 60.4667 23.8853 60.1253 23.032 59.784C22.2213 59.4 21.5813 59.08 21.112 58.824L22.968 53.704C23.9493 54.2587 25.4427 54.8773 27.448 55.56C29.4533 56.2427 31.9067 56.584 34.808 56.584Z" fill="white"/>
<defs>
<radialGradient id="paint0_radial" cx="0" cy="0" r="1" gradientUnits="userSpaceOnUse" gradientTransform="translate(64 7.74999) rotate(132.752) scale(112.693)">
<stop stop-color="#B902F9"/>
<stop offset="1" stop-color="white" stop-opacity="0"/>
</radialGradient>
</defs>
</svg>
