<svg width="253" height="279" viewBox="0 0 253 279" fill="none" xmlns="http://www.w3.org/2000/svg">
<path d="M185 43C185 66.7482 165.748 86 142 86C118.252 86 99 66.7482 99 43C99 19.2518 118.252 0 142 0C165.748 0 185 19.2518 185 43Z" fill="#1F5FFF"/>
<path d="M253 130C253 146.016 240.016 159 224 159C207.984 159 195 146.016 195 130C195 113.984 207.984 101 224 101C240.016 101 253 113.984 253 130Z" fill="#1F5FFF"/>
<circle cx="29" cy="133" r="29" fill="#1F5FFF"/>
<circle cx="74" cy="250" r="29" fill="#20C581"/>
<line x1="142.698" y1="43.6346" x2="223.698" y2="132.635" stroke="#1F5FFF" stroke-width="10"/>
<line x1="28.885" y1="133.089" x2="141.885" y2="43.0889" stroke="#1F5FFF" stroke-width="10"/>
<path d="M27.2254 137.787L31.9996 129L205 223L200.226 231.787L27.2254 137.787Z" fill="#1F5FFF"/>
<line x1="74.1224" y1="250.078" x2="203.122" y2="227.078" stroke="#20C581" stroke-width="10"/>
<circle cx="202.5" cy="226.5" r="31.5" fill="#20C581"/>
</svg>
